<?xml version="1.0" encoding="utf-8"?>
<!-- Generator: Adobe Illustrator 25.2.1, SVG Export Plug-In . SVG Version: 6.00 Build 0)  -->
<svg version="1.1" id="Layer_1" xmlns="http://www.w3.org/2000/svg" xmlns:xlink="http://www.w3.org/1999/xlink" x="0px" y="0px"
	 viewBox="0 0 841.89 595.28" style="enable-background:new 0 0 841.89 595.28;" xml:space="preserve">
<style type="text/css">
	.st0{fill:#BCBEC0;}
	.st1{fill:#86AA4C;}
	.st2{fill:#8DC63F;}
	.st3{fill:none;stroke:#6D6E71;stroke-width:1.5;stroke-linecap:round;stroke-linejoin:round;stroke-miterlimit:10;}
	.st4{fill:#6294BD;}
	.st5{fill:#3D739F;}
	.st6{fill:#E3E3E3;}
	.st7{fill:#FFFFFF;}
	.st8{fill:#C8C7C6;}
	.st9{fill:#D2D2D2;}
	.st10{fill:#565656;}
	.st11{fill:#808285;}
	.st12{fill:#A7A9AC;}
	.st13{fill:#6D6E71;}
	.st14{fill:#939598;}
	.st15{fill:#A97C50;}
	.st16{fill:#8B5E3C;}
	.st17{fill:#754C29;}
	.st18{fill:#3C2415;}
	.st19{fill:#603913;}
	.st20{fill:#58595B;}
</style>
<polygon class="st0" points="725.82,244.85 724.88,245.09 701.64,250.91 697.89,235.94 705.6,234 705.34,232.98 699.28,208.78 
	706.55,206.96 706.3,205.94 699.36,178.28 695.9,179.14 695.93,179.28 690.71,180.59 689.4,175.37 688.54,171.91 662.39,178.46 
	660.83,172.22 659.96,168.76 656.5,169.63 656.5,169.63 633.82,175.32 631.64,166.64 580.28,179.52 576.82,180.38 577.69,183.84 
	579.48,191 554.86,197.18 552.93,189.47 549.47,190.34 525.09,196.45 520.7,178.91 517.23,179.78 514.16,180.55 510.7,181.42 
	513.12,191.07 475.1,200.6 473.16,192.89 472.59,193.03 472.59,192.89 382.46,192.89 232.05,153.96 228.59,153.06 225.02,166.86 
	147.93,146.91 147.04,150.36 124.03,239.25 123.14,242.7 135.36,245.86 111.65,337.47 113.17,337.87 113.17,337.87 138.64,344.46 
	133.02,366.18 133.02,366.18 132.13,369.64 135.58,370.53 198.15,386.73 198.66,384.76 198.88,383.9 199.04,383.27 203.5,366.07 
	277.4,385.2 280.85,386.09 285.69,367.39 384.08,392.86 384.09,392.84 494.31,365.21 498.88,383.44 498.87,383.44 499.74,386.9 
	577.12,367.5 581.21,383.79 581.19,383.8 582.06,387.26 659.61,367.81 664.31,386.55 667.72,385.69 731.27,369.76 730.41,366.29 
	730.41,366.29 724.96,344.58 747.91,338.82 747.91,338.82 749.29,338.48 "/>
<polygon class="st1" points="179.9,272.69 177.02,282.07 172.81,280.73 166.68,302.75 175.11,304.86 173.29,313.29 199.71,321.14 
	194.64,338.18 208.04,341.63 212.45,324.39 225.85,328.22 221.07,345.26 251.51,354.1 254,345.26 271.62,349.67 273.92,340.86 
	281.91,343.35 284.45,334.54 328.68,346.6 333.61,329.37 342.47,331.29 347.26,313.4 355.87,316.16 359.32,303.14 333.61,296.43 
	321.79,339.52 190.04,303.9 197.13,277.48 "/>
<polygon class="st2" points="214.94,282.46 212.64,291.07 308.77,316.92 316.81,286.29 254.96,269.05 249.21,291.84 "/>
<polyline class="st1" points="684.4,274.6 666.85,278.8 676.24,315.77 553.68,348.14 537.79,288.39 522.47,292.1 529.55,319.99 
	521.7,322.16 527.83,344.12 536.64,342.46 541.24,359.43 620.13,338.75 622.13,347.56 657.47,338.37 659.77,346.99 681.98,341.05 
	679.3,332.24 696.92,327.26 694.81,318.65 714.92,313.48 "/>
<polygon class="st2" points="554.83,284.75 565.94,327.26 655.36,303.14 650.38,283.03 620.32,291.26 614.58,269.05 "/>
<polygon class="st1" points="700.15,254.12 647.13,267.71 641.38,245.88 625.87,249.33 623,238.99 682.36,223.31 676.81,203.75 
	617.64,219.59 614.96,208.54 483.81,242.86 474.5,202.14 514.96,194.29 515.03,184.01 518.1,183.24 522.9,197.93 552.25,192.56 
	552.25,199.46 581.66,192.18 581.15,182.98 629.05,170.97 634.69,178.78 657.37,173.09 659.4,181.19 685.94,176.24 689.74,184.51 
	696.8,182.74 702.22,204.37 696.04,210.53 701.27,231.41 697.89,235.94 "/>
<polyline class="st3" points="333.07,331.27 408.98,351.65 521.7,322.16 "/>
<polyline class="st3" points="333.61,296.43 335.19,291.14 342.6,292.99 522.9,293.79 "/>
<polyline class="st3" points="393.66,194.25 393.66,196.04 389.4,207.48 387.79,213.73 386.77,217.67 376.3,257.11 270.34,229.76 
	"/>
<line class="st3" x1="275.33" y1="217.51" x2="287.65" y2="170.37"/>
<g>
	<path d="M312.43,204.08l0.55,0.15l-1.4,5l2.13,0.6l-0.15,0.53l-2.68-0.75L312.43,204.08z"/>
	<path d="M319.02,205.92l1.03,6.26l-0.6-0.17l-0.36-2.06l-2.38-0.67l-1.37,1.58l-0.62-0.17l4.16-4.8L319.02,205.92z M318.62,207.08
		l-1.51,1.74l1.89,0.53L318.62,207.08z"/>
	<path d="M323.24,207.1l0.55,0.16l-0.93,3.34c-0.11,0.4-0.17,0.64-0.18,0.75c-0.03,0.23-0.02,0.43,0.04,0.6
		c0.06,0.17,0.18,0.34,0.36,0.5c0.18,0.16,0.38,0.26,0.59,0.32c0.18,0.05,0.37,0.06,0.56,0.03c0.19-0.03,0.36-0.1,0.51-0.21
		s0.28-0.25,0.39-0.43c0.08-0.13,0.18-0.41,0.3-0.85l0.93-3.34l0.55,0.15l-0.93,3.34c-0.14,0.49-0.3,0.88-0.48,1.16
		c-0.18,0.28-0.45,0.49-0.8,0.63c-0.35,0.14-0.74,0.16-1.15,0.04c-0.45-0.12-0.8-0.34-1.06-0.64c-0.26-0.3-0.39-0.64-0.4-1.03
		c-0.01-0.23,0.07-0.63,0.22-1.19L323.24,207.1z"/>
	<path d="M327.5,214.26l1.55-5.53l0.12,0.03l2.5,5.27l1.19-4.24l0.55,0.15l-1.55,5.53l-0.12-0.04l-2.48-5.21l-1.17,4.19
		L327.5,214.26z"/>
	<path d="M333.96,216.07l1.55-5.53l1.15,0.32c0.83,0.23,1.41,0.47,1.75,0.7c0.48,0.34,0.81,0.78,0.98,1.33
		c0.17,0.55,0.17,1.14-0.01,1.79c-0.15,0.55-0.41,1.01-0.77,1.36c-0.36,0.35-0.76,0.58-1.19,0.67s-1,0.04-1.69-0.15L333.96,216.07z
		 M334.64,215.69l0.64,0.18c0.76,0.21,1.31,0.31,1.63,0.3c0.45-0.02,0.85-0.17,1.19-0.46c0.34-0.29,0.58-0.68,0.72-1.19
		c0.15-0.53,0.15-1.03,0-1.48c-0.15-0.45-0.44-0.81-0.86-1.08c-0.32-0.2-0.87-0.41-1.67-0.64l-0.39-0.11L334.64,215.69z"/>
	<path d="M342.04,212.36l1.1,0.31c0.61,0.17,1.02,0.31,1.23,0.42c0.31,0.17,0.53,0.4,0.67,0.71c0.14,0.3,0.15,0.64,0.05,1
		c-0.08,0.3-0.23,0.55-0.44,0.73c-0.21,0.19-0.46,0.31-0.75,0.35s-0.68,0-1.14-0.13l1.27,3.13l-0.68-0.19l-1.27-3.13l-0.31-0.09
		l-0.72,2.57l-0.55-0.15L342.04,212.36z M342.45,213.06l-0.53,1.88l0.95,0.27c0.37,0.1,0.65,0.14,0.85,0.12
		c0.2-0.02,0.37-0.09,0.51-0.22c0.14-0.13,0.24-0.29,0.29-0.48c0.05-0.19,0.05-0.37-0.01-0.55c-0.06-0.18-0.16-0.32-0.31-0.44
		c-0.14-0.11-0.41-0.22-0.79-0.33L342.45,213.06z"/>
	<path d="M347.02,213.75l0.64,0.18l0.78,2.68l2.03-1.89l0.64,0.18l-2.56,2.4l-0.74,2.64l-0.55-0.15l0.74-2.64L347.02,213.75z"/>
</g>
<g>
	<path d="M290.43,249.62c0.84,0.21,1.48,0.67,1.91,1.37c0.43,0.71,0.54,1.47,0.34,2.29c-0.2,0.82-0.66,1.44-1.36,1.87
		s-1.47,0.54-2.29,0.34c-0.83-0.2-1.46-0.66-1.88-1.37c-0.43-0.71-0.55-1.46-0.35-2.27c0.13-0.54,0.38-1,0.76-1.39
		c0.37-0.39,0.81-0.67,1.33-0.81C289.39,249.5,289.91,249.49,290.43,249.62z M290.32,250.17c-0.41-0.1-0.83-0.09-1.25,0.03
		c-0.42,0.12-0.78,0.34-1.08,0.66s-0.5,0.69-0.61,1.14c-0.16,0.66-0.07,1.28,0.27,1.85c0.35,0.57,0.84,0.94,1.49,1.09
		c0.43,0.11,0.86,0.1,1.28-0.02c0.42-0.12,0.78-0.34,1.08-0.65c0.3-0.31,0.5-0.69,0.61-1.14c0.11-0.44,0.1-0.87-0.01-1.28
		c-0.12-0.41-0.34-0.77-0.66-1.07C291.11,250.47,290.74,250.27,290.32,250.17z"/>
	<path d="M295.26,250.96l1.11,0.27c0.64,0.16,1.06,0.29,1.27,0.4c0.3,0.16,0.52,0.38,0.66,0.68s0.17,0.62,0.08,0.99
		c-0.09,0.37-0.27,0.65-0.52,0.85c-0.26,0.19-0.57,0.29-0.94,0.29c-0.27,0-0.75-0.09-1.44-0.26l-0.4-0.1l-0.64,2.59l-0.56-0.14
		L295.26,250.96z M295.69,251.64l-0.47,1.89l0.94,0.24c0.38,0.09,0.67,0.13,0.86,0.1c0.19-0.02,0.36-0.1,0.5-0.23
		c0.14-0.13,0.23-0.29,0.28-0.48c0.05-0.19,0.04-0.37-0.02-0.55c-0.06-0.18-0.17-0.32-0.32-0.43c-0.15-0.11-0.41-0.21-0.79-0.3
		L295.69,251.64z"/>
	<path d="M300.65,252.29l3.2,0.79l-0.13,0.55l-2.64-0.65l-0.43,1.75l2.62,0.65l-0.13,0.55l-2.62-0.65l-0.54,2.19l2.62,0.65
		l-0.13,0.55l-3.17-0.78L300.65,252.29z"/>
	<path d="M304.21,259.08l1.38-5.58l0.12,0.03l2.66,5.19l1.06-4.28l0.55,0.14l-1.38,5.58l-0.12-0.03l-2.64-5.13l-1.04,4.22
		L304.21,259.08z"/>
	<path d="M315.06,255.84l1.11,0.27c0.62,0.15,1.03,0.28,1.24,0.39c0.31,0.16,0.54,0.39,0.69,0.69s0.17,0.63,0.08,1
		c-0.08,0.3-0.21,0.55-0.41,0.75s-0.45,0.32-0.74,0.37c-0.29,0.05-0.68,0.02-1.14-0.09l1.37,3.08l-0.69-0.17l-1.37-3.09l-0.32-0.08
		l-0.64,2.59l-0.56-0.14L315.06,255.84z M315.48,256.53l-0.47,1.9l0.96,0.25c0.37,0.09,0.66,0.12,0.85,0.1
		c0.2-0.03,0.36-0.11,0.5-0.24c0.14-0.13,0.23-0.29,0.28-0.48c0.05-0.19,0.04-0.37-0.03-0.55c-0.06-0.18-0.17-0.32-0.32-0.43
		c-0.15-0.11-0.41-0.21-0.8-0.3L315.48,256.53z"/>
	<path d="M323.21,257.71c0.84,0.21,1.48,0.67,1.91,1.37s0.54,1.47,0.34,2.29c-0.2,0.82-0.66,1.44-1.36,1.87
		c-0.71,0.43-1.47,0.54-2.29,0.34c-0.83-0.2-1.46-0.66-1.89-1.37c-0.43-0.71-0.54-1.46-0.35-2.27c0.13-0.54,0.38-1,0.76-1.4
		c0.37-0.39,0.81-0.66,1.33-0.81C322.18,257.59,322.69,257.58,323.21,257.71z M323.1,258.25c-0.41-0.1-0.83-0.09-1.25,0.03
		s-0.78,0.34-1.08,0.66c-0.3,0.31-0.5,0.69-0.61,1.14c-0.16,0.66-0.07,1.28,0.27,1.85c0.35,0.57,0.84,0.94,1.49,1.1
		c0.43,0.11,0.86,0.1,1.28-0.02c0.42-0.12,0.78-0.33,1.08-0.65s0.5-0.69,0.61-1.14c0.11-0.44,0.11-0.87-0.01-1.28
		c-0.12-0.41-0.34-0.77-0.66-1.08C323.9,258.56,323.52,258.36,323.1,258.25z"/>
	<path d="M330.74,259.56c0.85,0.21,1.48,0.67,1.91,1.37s0.54,1.47,0.34,2.29c-0.2,0.82-0.66,1.44-1.37,1.87
		c-0.71,0.43-1.47,0.54-2.29,0.34c-0.83-0.2-1.46-0.66-1.89-1.37c-0.43-0.71-0.54-1.46-0.35-2.27c0.13-0.54,0.38-1,0.76-1.4
		c0.37-0.39,0.81-0.66,1.33-0.81C329.7,259.44,330.22,259.43,330.74,259.56z M330.63,260.11c-0.41-0.1-0.83-0.09-1.25,0.03
		c-0.42,0.12-0.78,0.34-1.08,0.66c-0.3,0.31-0.5,0.69-0.61,1.14c-0.16,0.66-0.07,1.28,0.27,1.85c0.35,0.57,0.84,0.94,1.49,1.1
		c0.43,0.11,0.86,0.1,1.28-0.02c0.42-0.12,0.78-0.34,1.08-0.65c0.3-0.31,0.5-0.69,0.61-1.14c0.11-0.44,0.1-0.87-0.01-1.28
		c-0.12-0.41-0.34-0.77-0.66-1.07C331.42,260.42,331.05,260.22,330.63,260.11z"/>
	<path d="M335.58,260.9l2.8,0.69l-0.13,0.55l-2.24-0.55l-0.43,1.75l2.24,0.55l-0.13,0.55l-2.24-0.55l-0.68,2.74l-0.56-0.14
		L335.58,260.9z"/>
	<path d="M291.66,260.54l0.13-0.55l3.06,0.75l-0.13,0.55l-1.24-0.31l-1.24,5.03l-0.57-0.14l1.24-5.03L291.66,260.54z"/>
	<path d="M296.44,261.14l3.2,0.79l-0.13,0.55l-2.64-0.65l-0.43,1.75l2.62,0.65l-0.13,0.55l-2.62-0.65l-0.54,2.19l2.62,0.65
		l-0.13,0.55l-3.17-0.78L296.44,261.14z"/>
	<path d="M301.41,262.36l1.11,0.27c0.62,0.15,1.03,0.28,1.24,0.39c0.31,0.16,0.54,0.39,0.69,0.69c0.15,0.3,0.17,0.63,0.08,1
		c-0.07,0.3-0.21,0.55-0.41,0.75c-0.2,0.2-0.45,0.32-0.74,0.37c-0.29,0.05-0.68,0.02-1.14-0.09l1.37,3.08l-0.69-0.17l-1.37-3.08
		l-0.32-0.08l-0.64,2.59l-0.56-0.14L301.41,262.36z M301.83,263.05l-0.47,1.9l0.96,0.25c0.37,0.09,0.66,0.12,0.85,0.1
		c0.2-0.03,0.36-0.11,0.5-0.24c0.14-0.13,0.23-0.29,0.28-0.48c0.05-0.19,0.04-0.37-0.03-0.55c-0.06-0.18-0.17-0.32-0.32-0.43
		c-0.15-0.11-0.41-0.21-0.8-0.3L301.83,263.05z"/>
	<path d="M306.9,263.72l1.11,0.27c0.62,0.15,1.03,0.28,1.24,0.39c0.31,0.16,0.54,0.39,0.69,0.69c0.15,0.3,0.17,0.63,0.08,1
		c-0.08,0.3-0.21,0.55-0.41,0.75c-0.2,0.2-0.45,0.32-0.74,0.37c-0.29,0.05-0.68,0.02-1.14-0.09l1.37,3.08l-0.69-0.17l-1.37-3.08
		l-0.32-0.08l-0.64,2.59l-0.56-0.14L306.9,263.72z M307.32,264.4l-0.47,1.9l0.96,0.24c0.37,0.09,0.66,0.12,0.85,0.1
		c0.2-0.03,0.36-0.11,0.5-0.24c0.14-0.13,0.23-0.29,0.28-0.48c0.05-0.19,0.04-0.37-0.03-0.55c-0.06-0.18-0.17-0.32-0.32-0.43
		c-0.15-0.11-0.41-0.21-0.8-0.3L307.32,264.4z"/>
	<path d="M314.64,265.63l1.23,6.22l-0.6-0.15l-0.42-2.05l-2.4-0.59l-1.32,1.62l-0.62-0.15l4.01-4.93L314.64,265.63z M314.27,266.79
		l-1.45,1.78l1.91,0.47L314.27,266.79z"/>
	<path d="M323.82,268.99l-0.52,0.23c-0.17-0.38-0.4-0.69-0.7-0.93c-0.3-0.25-0.65-0.42-1.06-0.52c-0.45-0.11-0.88-0.1-1.32,0.02
		s-0.8,0.33-1.09,0.64c-0.3,0.31-0.5,0.69-0.61,1.14c-0.17,0.68-0.07,1.3,0.28,1.88s0.89,0.94,1.6,1.12
		c0.78,0.19,1.51,0.05,2.19-0.43l0.36,0.44c-0.37,0.29-0.78,0.47-1.24,0.56s-0.95,0.07-1.47-0.05c-0.98-0.24-1.67-0.76-2.07-1.54
		c-0.34-0.67-0.41-1.39-0.22-2.16c0.2-0.82,0.66-1.43,1.37-1.85c0.71-0.42,1.5-0.52,2.36-0.3c0.52,0.13,0.97,0.35,1.33,0.66
		C323.37,268.18,323.64,268.55,323.82,268.99z"/>
	<path d="M325.97,268.42l3.2,0.79l-0.13,0.55l-2.64-0.65l-0.43,1.75l2.62,0.65l-0.13,0.55l-2.62-0.65l-0.54,2.19l2.62,0.65
		l-0.13,0.54L324.6,274L325.97,268.42z"/>
</g>
<g>
	<path d="M533.15,251.43c0.84-0.23,1.62-0.14,2.34,0.27c0.72,0.41,1.19,1.02,1.41,1.84c0.22,0.81,0.12,1.58-0.29,2.29
		c-0.41,0.72-1.02,1.19-1.84,1.41c-0.82,0.22-1.59,0.13-2.31-0.28c-0.72-0.41-1.18-1.02-1.4-1.81c-0.14-0.53-0.15-1.06-0.01-1.59
		s0.39-0.98,0.77-1.35S532.63,251.57,533.15,251.43z M533.32,251.96c-0.41,0.11-0.77,0.32-1.08,0.64c-0.31,0.31-0.52,0.68-0.63,1.1
		c-0.11,0.42-0.1,0.85,0.02,1.29c0.18,0.66,0.56,1.16,1.14,1.49c0.58,0.33,1.19,0.41,1.84,0.24c0.43-0.12,0.8-0.33,1.11-0.64
		c0.31-0.31,0.52-0.67,0.63-1.09c0.11-0.42,0.1-0.85-0.02-1.29c-0.12-0.44-0.33-0.81-0.63-1.11c-0.3-0.3-0.67-0.51-1.1-0.62
		C534.16,251.85,533.74,251.85,533.32,251.96z"/>
	<path d="M538.03,250.26l1.11-0.3c0.63-0.17,1.07-0.26,1.3-0.26c0.34-0.01,0.64,0.08,0.91,0.27s0.45,0.47,0.55,0.83
		c0.1,0.37,0.08,0.7-0.05,0.99c-0.13,0.29-0.36,0.53-0.68,0.7c-0.24,0.13-0.7,0.29-1.39,0.47l-0.4,0.11l0.7,2.58l-0.55,0.15
		L538.03,250.26z M538.73,250.66l0.51,1.88l0.94-0.24c0.38-0.1,0.65-0.21,0.81-0.33s0.27-0.27,0.32-0.45
		c0.06-0.18,0.06-0.37,0.01-0.56c-0.05-0.19-0.15-0.34-0.29-0.47c-0.14-0.13-0.3-0.2-0.49-0.22c-0.18-0.02-0.46,0.02-0.83,0.12
		L538.73,250.66z"/>
	<path d="M543.38,248.82l3.18-0.86l0.15,0.54l-2.62,0.71l0.47,1.74l2.6-0.7l0.15,0.54l-2.6,0.7l0.59,2.18l2.6-0.7l0.15,0.54
		l-3.16,0.85L543.38,248.82z"/>
	<path d="M549.79,253.04l-1.5-5.55l0.12-0.03l4.84,3.26l-1.15-4.25l0.55-0.15l1.5,5.55l-0.12,0.03l-4.79-3.21l1.13,4.2
		L549.79,253.04z"/>
	<path d="M557.71,244.96l1.11-0.3c0.62-0.17,1.04-0.25,1.27-0.26c0.35-0.01,0.66,0.08,0.93,0.27c0.27,0.19,0.46,0.47,0.56,0.83
		c0.08,0.3,0.08,0.59,0,0.85c-0.08,0.27-0.24,0.5-0.47,0.68c-0.23,0.19-0.58,0.35-1.04,0.47l2.69,2.04l-0.69,0.19l-2.69-2.04
		l-0.31,0.08l0.7,2.58l-0.55,0.15L557.71,244.96z M558.42,245.35l0.51,1.89l0.96-0.25c0.37-0.1,0.63-0.21,0.79-0.33
		c0.16-0.12,0.27-0.27,0.33-0.45c0.06-0.18,0.06-0.37,0.01-0.56c-0.05-0.19-0.15-0.34-0.29-0.47s-0.3-0.2-0.49-0.22
		c-0.18-0.02-0.46,0.02-0.84,0.12L558.42,245.35z"/>
	<path d="M565.75,242.64c0.84-0.23,1.62-0.14,2.34,0.27c0.72,0.41,1.19,1.02,1.41,1.84c0.22,0.81,0.12,1.58-0.29,2.29
		c-0.41,0.72-1.02,1.19-1.84,1.41c-0.82,0.22-1.59,0.13-2.31-0.28c-0.72-0.41-1.18-1.02-1.4-1.82c-0.14-0.53-0.15-1.06-0.01-1.59
		c0.14-0.52,0.39-0.98,0.77-1.35S565.23,242.78,565.75,242.64z M565.92,243.17c-0.41,0.11-0.77,0.32-1.08,0.64
		c-0.31,0.31-0.52,0.68-0.63,1.1c-0.11,0.42-0.1,0.85,0.02,1.3c0.18,0.66,0.56,1.15,1.14,1.49c0.58,0.33,1.19,0.41,1.84,0.24
		c0.43-0.12,0.8-0.33,1.11-0.63c0.31-0.31,0.52-0.67,0.63-1.09c0.11-0.42,0.1-0.85-0.02-1.29c-0.12-0.44-0.33-0.81-0.63-1.11
		c-0.3-0.3-0.67-0.51-1.1-0.62C566.76,243.06,566.34,243.06,565.92,243.17z"/>
	<path d="M573.23,240.62c0.84-0.23,1.62-0.13,2.34,0.27c0.72,0.41,1.19,1.02,1.41,1.84c0.22,0.81,0.12,1.58-0.29,2.29
		c-0.41,0.72-1.03,1.19-1.84,1.41c-0.82,0.22-1.59,0.13-2.31-0.28s-1.19-1.02-1.4-1.82c-0.14-0.53-0.15-1.06-0.01-1.59
		c0.14-0.53,0.39-0.98,0.77-1.35C572.27,241.02,572.72,240.76,573.23,240.62z M573.4,241.15c-0.41,0.11-0.77,0.32-1.08,0.64
		c-0.31,0.31-0.52,0.68-0.63,1.1c-0.11,0.42-0.1,0.85,0.02,1.29c0.18,0.66,0.56,1.15,1.14,1.49c0.58,0.33,1.19,0.41,1.84,0.24
		c0.43-0.12,0.8-0.33,1.11-0.63c0.31-0.31,0.52-0.67,0.63-1.09c0.11-0.42,0.1-0.85-0.02-1.29c-0.12-0.44-0.33-0.81-0.63-1.11
		s-0.67-0.51-1.1-0.62C574.25,241.04,573.82,241.04,573.4,241.15z"/>
	<path d="M578.12,239.45l2.78-0.75l0.15,0.54l-2.22,0.6l0.47,1.74l2.22-0.6l0.15,0.54l-2.22,0.6l0.73,2.72l-0.55,0.15L578.12,239.45
		z"/>
	<path d="M539.51,260.39l-0.15-0.54l3.04-0.82l0.15,0.54l-1.24,0.33l1.35,5l-0.57,0.15l-1.35-5L539.51,260.39z"/>
	<path d="M543.98,258.6l3.18-0.86l0.15,0.54l-2.62,0.71l0.47,1.74l2.6-0.7l0.15,0.54l-2.6,0.7l0.59,2.18l2.6-0.7l0.15,0.54
		l-3.16,0.85L543.98,258.6z"/>
	<path d="M548.92,257.27l1.11-0.3c0.62-0.17,1.04-0.25,1.27-0.26c0.35-0.01,0.66,0.08,0.94,0.27c0.27,0.19,0.46,0.47,0.56,0.83
		c0.08,0.3,0.08,0.59,0,0.85s-0.24,0.5-0.47,0.68s-0.58,0.35-1.04,0.47l2.69,2.04l-0.69,0.18l-2.69-2.04l-0.31,0.08l0.7,2.58
		l-0.55,0.15L548.92,257.27z M549.62,257.66l0.51,1.89l0.96-0.25c0.37-0.1,0.63-0.21,0.79-0.33c0.16-0.12,0.27-0.27,0.33-0.45
		c0.06-0.18,0.06-0.37,0.01-0.56c-0.05-0.19-0.15-0.34-0.29-0.47c-0.14-0.12-0.3-0.2-0.49-0.22c-0.18-0.02-0.46,0.02-0.84,0.12
		L549.62,257.66z"/>
	<path d="M554.38,255.8l1.11-0.3c0.62-0.17,1.04-0.25,1.27-0.26c0.35-0.01,0.66,0.08,0.93,0.27c0.27,0.19,0.46,0.47,0.56,0.83
		c0.08,0.3,0.08,0.59,0,0.85c-0.08,0.27-0.24,0.5-0.47,0.68s-0.58,0.35-1.05,0.47l2.69,2.04l-0.69,0.19l-2.69-2.04l-0.31,0.08
		l0.69,2.58l-0.55,0.15L554.38,255.8z M555.08,256.19l0.51,1.89l0.96-0.25c0.37-0.1,0.63-0.21,0.79-0.33
		c0.16-0.12,0.27-0.27,0.33-0.45c0.06-0.18,0.06-0.37,0.01-0.56c-0.05-0.19-0.15-0.34-0.29-0.47c-0.14-0.12-0.3-0.2-0.48-0.22
		s-0.46,0.02-0.84,0.12L555.08,256.19z"/>
	<path d="M562.08,253.72l4.08,4.85l-0.6,0.16l-1.37-1.59l-2.39,0.64l-0.37,2.06l-0.62,0.17l1.13-6.25L562.08,253.72z M562.33,254.92
		l-0.41,2.26l1.9-0.51L562.33,254.92z"/>
	<path d="M571.74,252.22l-0.35,0.45c-0.33-0.25-0.68-0.41-1.06-0.48c-0.38-0.07-0.78-0.05-1.18,0.06c-0.44,0.12-0.82,0.34-1.14,0.65
		c-0.32,0.31-0.54,0.68-0.65,1.09c-0.11,0.41-0.11,0.84,0.01,1.29c0.18,0.68,0.57,1.18,1.15,1.51s1.23,0.4,1.94,0.21
		c0.78-0.21,1.34-0.69,1.7-1.44l0.53,0.21c-0.18,0.43-0.45,0.79-0.81,1.1s-0.8,0.52-1.31,0.66c-0.97,0.26-1.82,0.15-2.56-0.35
		c-0.62-0.42-1.03-1.01-1.24-1.79c-0.22-0.81-0.12-1.57,0.3-2.28c0.42-0.71,1.06-1.18,1.92-1.41c0.52-0.14,1.01-0.16,1.49-0.07
		C570.96,251.73,571.38,251.92,571.74,252.22z"/>
	<path d="M573.35,250.68l3.18-0.86l0.15,0.54l-2.62,0.71l0.47,1.74l2.6-0.7l0.15,0.54l-2.6,0.7l0.59,2.18l2.6-0.7l0.15,0.54
		l-3.16,0.85L573.35,250.68z"/>
</g>
<polygon class="st4" points="470.07,197.69 471.87,195.44 487.98,257.53 474.25,261.69 470.62,261.69 "/>
<g id="Toilet_18_">
	<path class="st5" d="M473.88,234.62c-0.33,0.06-0.6,0.34-0.62,0.68l-0.02,0.56c0,0.07,0.01,0.13,0.03,0.19c0,0,0.1,0.54,0.55,0.78
		c-0.52,0.27-0.58,0.74-0.6,1.29c-0.04,0.93,0.25,3.04,2.24,3.12c1.99,0.09,2.46-1.98,2.5-2.92c0.02-0.55,0-1.02-0.48-1.34
		c0.53-0.19,0.61-0.73,0.61-0.73c0,0,0,0,0,0c0.02-0.06,0.04-0.12,0.04-0.19l0.02-0.56c-0.01-0.34-0.23-0.64-0.56-0.73
		C476.32,234.43,475.18,234.38,473.88,234.62z M473.44,236.37c0.01,0.01,0.01,0.01,0.02,0.02
		C473.45,236.39,473.45,236.38,473.44,236.37z M473.55,236.47c-0.01-0.01-0.03-0.02-0.04-0.03
		C473.52,236.45,473.53,236.46,473.55,236.47z M473.69,236.55c0.03,0.02,0.07,0.03,0.11,0.04
		C473.76,236.58,473.72,236.57,473.69,236.55z M473.59,236.5c0.02,0.01,0.04,0.02,0.06,0.03
		C473.63,236.52,473.61,236.51,473.59,236.5z M477.62,236.72c-0.04,0.01-0.07,0.02-0.11,0.03
		C477.55,236.74,477.59,236.73,477.62,236.72z M477.82,236.62c-0.01,0.01-0.03,0.02-0.04,0.03
		C477.79,236.64,477.8,236.63,477.82,236.62z M477.73,236.68c-0.02,0.01-0.04,0.02-0.06,0.03
		C477.68,236.7,477.7,236.69,477.73,236.68z M477.87,236.58c0.01,0,0.01-0.01,0.02-0.02C477.88,236.57,477.87,236.58,477.87,236.58z
		"/>
	<path class="st6" d="M475.52,239.84c-1.99-0.09-2.28-2.19-2.24-3.12c0.04-0.93,0.18-1.63,2.44-1.53c2.26,0.1,2.34,0.8,2.3,1.74
		C477.98,237.86,477.51,239.93,475.52,239.84z"/>
	<path class="st7" d="M473.83,235.94c-0.2,0.24-0.24,0.56-0.25,0.92c-0.04,0.81,0.22,2.65,1.95,2.72c1.74,0.07,2.15-1.73,2.18-2.54
		c0.02-0.36,0.01-0.68-0.17-0.94C476.27,236.21,475.03,236.15,473.83,235.94z"/>
	<path class="st8" d="M475.54,239.42c-1.69-0.07-1.98-1.81-1.96-2.65c0,0.03,0,0.06,0,0.09c-0.04,0.81,0.22,2.65,1.95,2.72
		c1.74,0.07,2.15-1.73,2.18-2.54c0-0.03,0-0.06,0-0.09C477.66,237.78,477.23,239.49,475.54,239.42z"/>
	<path class="st8" d="M473.99,235.78c1.2,0.21,2.13,0.26,3.4,0.15c0.17-0.02,0.31,0.15,0.15,0.17c-1.27,0.12-2.51,0.05-3.71-0.16
		C473.66,235.9,473.84,235.74,473.99,235.78z"/>
	<path class="st7" d="M477.66,233.38c-1.27-0.36-2.42-0.41-3.72-0.16c-0.33,0.06-0.6,0.34-0.62,0.68l-0.02,0.56
		c0,0.34,0.23,0.64,0.56,0.73c1.28,0.36,2.42,0.41,3.72,0.16c0.33-0.06,0.6-0.34,0.62-0.68l0.02-0.56
		C478.21,233.77,477.98,233.47,477.66,233.38z"/>
	<path class="st8" d="M477.54,235.07c-1.27,0.21-2.38,0.16-3.62-0.16c-0.32-0.08-0.55-0.34-0.55-0.64l-0.01,0.14
		c0,0.3,0.23,0.56,0.55,0.64c1.25,0.32,2.36,0.37,3.62,0.16c0.32-0.05,0.59-0.3,0.6-0.59l0.01-0.14
		C478.12,234.78,477.86,235.02,477.54,235.07z"/>
	<path class="st8" d="M477.57,235.34c-1.3,0.25-2.44,0.2-3.72-0.16c-0.26-0.07-0.46-0.28-0.53-0.54c0,0,0.11,0.65,0.7,0.84
		c1.14,0.37,2.18,0.36,3.35,0.14c0.68-0.12,0.78-0.78,0.78-0.78C478.07,235.1,477.84,235.29,477.57,235.34z"/>
	<g>
		<path class="st9" d="M474.27,235.29c-0.14-0.03-0.28-0.07-0.42-0.11l0.17,0.3c0.14,0.04,0.28,0.07,0.42,0.11L474.27,235.29z"/>
		<path class="st9" d="M477.15,235.41l-0.2,0.29c0.14-0.02,0.28-0.04,0.43-0.07l0.2-0.29C477.43,235.37,477.29,235.39,477.15,235.41
			z"/>
	</g>
	<path class="st8" d="M476.65,234.15c-0.01,0.17-0.41,0.3-0.9,0.28c-0.49-0.02-0.88-0.18-0.87-0.35c0.01-0.17,0.41-0.3,0.9-0.28
		C476.27,233.81,476.66,233.97,476.65,234.15z"/>
	<path class="st10" d="M475.77,233.92c-0.34-0.01-0.62,0.06-0.63,0.16c0,0.1,0.27,0.2,0.61,0.21c0.34,0.01,0.62-0.06,0.63-0.16
		C476.39,234.03,476.12,233.94,475.77,233.92z"/>
</g>
<g id="Sink_1_">
	<path class="st5" d="M481.93,254.67c0.43-0.12,0.87-0.29,1.44-0.53c0.35-0.15,0.55-0.51,0.48-0.89c-0.33-1.88-0.46-2.33-1.11-4.13
		c-0.13-0.35-0.49-0.57-0.86-0.52c-0.62,0.08-1.08,0.16-1.51,0.27C477.21,249.7,478.79,255.55,481.93,254.67z"/>
	<path class="st7" d="M482.24,255.83c0.43-0.12,0.87-0.29,1.44-0.53c0.35-0.15,0.55-0.51,0.48-0.89c-0.33-1.88-0.46-2.33-1.11-4.13
		c-0.13-0.35-0.49-0.57-0.86-0.52c-0.62,0.08-1.08,0.16-1.51,0.27C477.53,250.86,479.11,256.71,482.24,255.83z"/>
	<path class="st8" d="M482.07,255.26c0.33-0.09,0.63-0.25,0.73-0.31c0.25-0.15,0.42-0.41,0.37-0.7c-0.27-1.5-0.37-1.86-0.89-3.3
		c-0.1-0.28-0.38-0.42-0.67-0.42c-0.11,0-0.45,0.01-0.79,0.1C478.4,251.25,479.66,255.93,482.07,255.26z"/>
	<path class="st9" d="M480.9,254.1l-0.5-1.93c-0.35-0.1-0.51-0.37-0.63-0.73c-0.6,1.12-0.1,2.97,0.98,3.64
		C480.67,254.61,480.66,254.27,480.9,254.1z"/>
	<path class="st9" d="M482.28,250.94c-0.1-0.28-0.38-0.42-0.67-0.42c-0.17,0.32-0.39,0.62-0.36,0.93l0.11,0.13
		C481.81,251.28,482.32,251.09,482.28,250.94z"/>
	<path class="st9" d="M483.17,254.24c0.05,0.3-0.12,0.55-0.37,0.7c-0.31-0.19-0.65-0.34-0.78-0.62l0.03-0.17
		C482.59,254.18,483.14,254.09,483.17,254.24z"/>
	<path class="st6" d="M481.92,254.42c-0.63,0.17-1.45-0.33-1.67-1.16c-0.22-0.83,0.23-1.67,0.86-1.84c0.63-0.17,0.81,0.5,1.03,1.33
		C482.36,253.58,482.54,254.25,481.92,254.42z"/>
	<path class="st10" d="M481.8,252.84c0.06,0.24-0.08,0.48-0.31,0.54c-0.24,0.06-0.48-0.08-0.54-0.31c-0.06-0.24,0.08-0.48,0.31-0.54
		C481.49,252.46,481.73,252.6,481.8,252.84z"/>
	<path class="st7" d="M481.65,252.88c0.04,0.16-0.05,0.32-0.21,0.36c-0.16,0.04-0.32-0.05-0.36-0.21s0.05-0.32,0.21-0.36
		C481.45,252.63,481.61,252.72,481.65,252.88z"/>
	<path class="st10" d="M482.36,252.84l-0.08-0.28c-0.02-0.08,0.03-0.16,0.11-0.18l0.98-0.26c0.08-0.02,0.16,0.03,0.18,0.11
		l0.08,0.28c0.02,0.08-0.03,0.16-0.11,0.18l-0.98,0.26C482.46,252.97,482.38,252.92,482.36,252.84z"/>
</g>
<g>
	<g>
		
			<rect x="267.43" y="175.88" transform="matrix(0.965 0.2621 -0.2621 0.965 57.3414 -65.3942)" class="st11" width="12.73" height="12.73"/>
		<circle class="st12" cx="273.79" cy="182.24" r="5.51"/>
	</g>
	<g>
		
			<rect x="262.53" y="193.89" transform="matrix(0.965 0.2621 -0.2621 0.965 61.893 -63.4815)" class="st11" width="12.73" height="12.73"/>
		<circle class="st12" cx="268.9" cy="200.26" r="5.51"/>
	</g>
	
		<rect x="191.95" y="220.29" transform="matrix(0.965 0.2621 -0.2621 0.965 66.0597 -44.3257)" class="st11" width="14.46" height="10.34"/>
	<circle class="st12" cx="199.18" cy="225.46" r="4.47"/>
	
		<rect x="188.47" y="233.1" transform="matrix(0.965 0.2621 -0.2621 0.965 69.2964 -42.9656)" class="st11" width="14.46" height="10.34"/>
	<circle class="st12" cx="195.7" cy="238.27" r="4.47"/>
	
		<rect x="208.27" y="224.72" transform="matrix(0.965 0.2621 -0.2621 0.965 67.7918 -48.4474)" class="st11" width="14.46" height="10.34"/>
	<circle class="st12" cx="215.5" cy="229.89" r="4.47"/>
	
		<rect x="204.79" y="237.53" transform="matrix(0.965 0.2621 -0.2621 0.965 71.0284 -47.0873)" class="st11" width="14.46" height="10.34"/>
	<circle class="st12" cx="212.02" cy="242.7" r="4.47"/>
	
		<rect x="224.58" y="229.15" transform="matrix(0.965 0.2621 -0.2621 0.965 69.5238 -52.5691)" class="st11" width="14.46" height="10.34"/>
	<circle class="st12" cx="231.81" cy="234.32" r="4.47"/>
	
		<rect x="221.1" y="241.96" transform="matrix(0.965 0.2621 -0.2621 0.965 72.7605 -51.209)" class="st11" width="14.46" height="10.34"/>
	<circle class="st12" cx="228.33" cy="247.13" r="4.47"/>
	<g>
		
			<rect x="230.48" y="166.41" transform="matrix(0.2621 -0.965 0.965 0.2621 8.4324 353.0417)" class="st13" width="9.19" height="9.19"/>
		
			<rect x="227.67" y="176.76" transform="matrix(0.2621 -0.965 0.965 0.2621 -3.6283 357.9652)" class="st13" width="9.19" height="9.19"/>
		
			<rect x="224.86" y="187.11" transform="matrix(0.2621 -0.965 0.965 0.2621 -15.6889 362.8887)" class="st13" width="9.19" height="9.19"/>
		
			<rect x="247.58" y="171.05" transform="matrix(0.2621 -0.965 0.965 0.2621 16.5649 372.9634)" class="st13" width="9.19" height="9.19"/>
		
			<rect x="244.76" y="181.4" transform="matrix(0.2621 -0.965 0.965 0.2621 4.5043 377.8868)" class="st13" width="9.19" height="9.19"/>
		
			<rect x="241.95" y="191.75" transform="matrix(0.2621 -0.965 0.965 0.2621 -7.5564 382.8103)" class="st13" width="9.19" height="9.19"/>
	</g>
	<polygon class="st11" points="249.41,175.59 249.85,173.98 237.93,170.74 237.49,172.36 242.64,173.76 240.27,182.49 
		235.12,181.09 234.68,182.7 239.83,184.1 237.37,193.16 232.22,191.76 231.78,193.38 243.7,196.61 244.14,195 238.99,193.6 
		241.45,184.54 246.6,185.94 247.04,184.33 241.89,182.93 244.26,174.19 	"/>
	<g>
		
			<rect x="182.71" y="196.92" transform="matrix(0.965 0.2621 -0.2621 0.965 59.7946 -42.374)" class="st11" width="12.05" height="12.05"/>
		<circle class="st12" cx="188.73" cy="202.95" r="5.21"/>
	</g>
	<g>
		
			<rect x="169.5" y="193.34" transform="matrix(0.965 0.2621 -0.2621 0.965 58.3929 -39.0384)" class="st11" width="12.05" height="12.05"/>
		<circle class="st12" cx="175.53" cy="199.36" r="5.21"/>
	</g>
	
		<rect x="176.6" y="167.22" transform="matrix(0.2621 -0.965 0.965 0.2621 -32.4355 304.0724)" class="st13" width="12.05" height="12.05"/>
	
		<rect x="173.05" y="180.28" transform="matrix(0.2621 -0.965 0.965 0.2621 -47.6534 310.2847)" class="st13" width="12.05" height="12.05"/>
	
		<rect x="189.8" y="170.81" transform="matrix(0.2621 -0.965 0.965 0.2621 -26.1534 319.4612)" class="st13" width="12.05" height="12.05"/>
	
		<rect x="186.25" y="183.86" transform="matrix(0.2621 -0.965 0.965 0.2621 -41.3713 325.6735)" class="st13" width="12.05" height="12.05"/>
	<path class="st11" d="M220.17,178.07l-14.18-3.85c-0.45-0.12-0.71-0.58-0.59-1.03l0,0c0.12-0.45,0.58-0.71,1.03-0.59l14.18,3.85
		c0.45,0.12,0.71,0.58,0.59,1.03l0,0C221.07,177.93,220.61,178.19,220.17,178.07z"/>
	
		<rect x="171.52" y="163.7" transform="matrix(0.965 0.2621 -0.2621 0.965 50.0662 -44.1877)" class="st11" width="38.3" height="3.75"/>
	<path class="st11" d="M219.44,180.73l-14.18-3.85c-0.45-0.12-0.71-0.58-0.59-1.03l0,0c0.12-0.45,0.58-0.71,1.03-0.59l14.18,3.85
		c0.45,0.12,0.71,0.58,0.59,1.03h0C220.35,180.59,219.89,180.85,219.44,180.73z"/>
	<path class="st11" d="M218.72,183.39l-14.18-3.85c-0.45-0.12-0.71-0.58-0.59-1.03v0c0.12-0.45,0.58-0.71,1.03-0.59l14.18,3.85
		c0.45,0.12,0.71,0.58,0.59,1.03l0,0C219.63,183.25,219.17,183.51,218.72,183.39z"/>
	
		<rect x="200.44" y="172.07" transform="matrix(-0.2621 0.965 -0.965 -0.2621 428.2291 20.4582)" class="st11" width="11.71" height="3.75"/>
	
		<rect x="206.89" y="177.06" transform="matrix(-0.2621 0.965 -0.965 -0.2621 437.8554 20.2732)" class="st14" width="8.58" height="0.94"/>
	
		<rect x="211.32" y="178.27" transform="matrix(-0.2621 0.965 -0.965 -0.2621 444.6155 17.5136)" class="st14" width="8.58" height="0.94"/>
	<path class="st13" d="M155.86,200.26l-12.59-3.42c-1.15-0.31-1.83-1.5-1.52-2.65l10.11-37.21c0.31-1.15,1.5-1.83,2.65-1.52
		l12.59,3.42c1.15,0.31,1.83,1.5,1.52,2.65l-10.11,37.21C158.2,199.9,157.01,200.57,155.86,200.26z"/>
	
		<rect x="146.95" y="176.54" transform="matrix(-0.2621 0.965 -0.965 -0.2621 383.3777 63.7009)" class="st11" width="40.77" height="3.75"/>
	<path class="st11" d="M165.69,183.59l-14.18-3.85c-0.45-0.12-0.71-0.58-0.59-1.03l0,0c0.12-0.45,0.58-0.71,1.03-0.59l14.18,3.85
		c0.45,0.12,0.71,0.58,0.59,1.03v0C166.6,183.45,166.14,183.71,165.69,183.59z"/>
	<path class="st11" d="M163.92,190.11l-14.18-3.85c-0.45-0.12-0.71-0.58-0.59-1.03l0,0c0.12-0.45,0.58-0.71,1.03-0.59l14.18,3.85
		c0.45,0.12,0.71,0.58,0.59,1.03l0,0C164.83,189.97,164.37,190.23,163.92,190.11z"/>
	<path class="st11" d="M162.15,196.63l-14.18-3.85c-0.45-0.12-0.71-0.58-0.59-1.03l0,0c0.12-0.45,0.58-0.71,1.03-0.59l14.18,3.85
		c0.45,0.12,0.71,0.58,0.59,1.03l0,0C163.06,196.49,162.59,196.75,162.15,196.63z"/>
</g>
<g>
	
		<rect x="128.15" y="280.39" transform="matrix(0.9672 0.2538 -0.2538 0.9672 76.4764 -26.8187)" class="st15" width="28.02" height="5.11"/>
	
		<rect x="126.75" y="285.73" transform="matrix(0.9672 0.2538 -0.2538 0.9672 77.7854 -26.2884)" class="st15" width="28.02" height="5.11"/>
	
		<rect x="125.35" y="291.07" transform="matrix(0.9672 0.2538 -0.2538 0.9672 79.0943 -25.758)" class="st16" width="28.02" height="5.11"/>
	
		<rect x="123.95" y="296.4" transform="matrix(0.9672 0.2538 -0.2538 0.9672 80.4033 -25.2277)" class="st16" width="28.02" height="5.11"/>
	
		<rect x="122.55" y="301.74" transform="matrix(0.9672 0.2538 -0.2538 0.9672 81.7123 -24.6973)" class="st17" width="28.02" height="5.11"/>
	
		<rect x="121.15" y="307.08" transform="matrix(0.9672 0.2538 -0.2538 0.9672 83.0212 -24.1669)" class="st17" width="28.02" height="5.11"/>
	
		<rect x="114.15" y="333.77" transform="matrix(-0.9672 -0.2538 0.2538 -0.9672 166.7458 694.1531)" class="st18" width="28.02" height="5.11"/>
	
		<rect x="115.55" y="328.43" transform="matrix(-0.9672 -0.2538 0.2538 -0.9672 170.8562 684.0083)" class="st18" width="28.02" height="5.11"/>
	
		<rect x="116.95" y="323.09" transform="matrix(-0.9672 -0.2538 0.2538 -0.9672 174.9666 673.8636)" class="st18" width="28.02" height="5.11"/>
	
		<rect x="118.35" y="317.75" transform="matrix(-0.9672 -0.2538 0.2538 -0.9672 179.0771 663.7188)" class="st19" width="28.02" height="5.11"/>
	
		<rect x="119.75" y="312.42" transform="matrix(-0.9672 -0.2538 0.2538 -0.9672 183.1875 653.574)" class="st19" width="28.02" height="5.11"/>
	
		<rect x="133.49" y="279.49" transform="matrix(0.9672 0.2538 -0.2538 0.9672 83.0212 -24.1669)" class="st20" width="3.35" height="60.29"/>
</g>
<g>
	<polygon class="st15" points="708.31,288.81 734.57,281.91 733.35,276.97 707.09,283.86 	"/>
	<polygon class="st15" points="709.62,294.16 735.88,287.26 734.67,282.31 708.4,289.21 	"/>
	<polygon class="st16" points="710.93,299.51 737.2,292.61 735.98,287.66 709.72,294.56 	"/>
	<polygon class="st16" points="712.25,304.86 738.51,297.96 737.29,293.01 711.03,299.91 	"/>
	<polygon class="st17" points="713.56,310.21 739.82,303.31 738.61,298.36 712.34,305.26 	"/>
	<polygon class="st17" points="714.87,315.55 741.14,308.66 739.92,303.71 713.66,310.6 	"/>
	<polygon class="st18" points="746.49,330.45 720.22,337.35 721.44,342.3 747.7,335.4 	"/>
	<polygon class="st18" points="745.17,325.1 718.91,332 720.13,336.95 746.39,330.05 	"/>
	<polygon class="st18" points="743.86,319.75 717.6,326.65 718.81,331.6 745.08,324.7 	"/>
	<polygon class="st19" points="742.55,314.41 716.28,321.3 717.5,326.25 743.76,319.35 	"/>
	<polygon class="st19" points="741.23,309.06 714.97,315.95 716.19,320.9 742.45,314.01 	"/>
	<polygon class="st20" points="733,339.26 736.14,338.44 721.79,280 718.65,280.83 	"/>
</g>
<path class="st20" d="M747.91,338.82L747.91,338.82l1.38-0.35l-23.48-93.63l-0.94,0.24l0,0l-23.23,5.83l-3.75-14.97l7.71-1.93
	l-0.26-1.02l0,0l-6.07-24.2l7.28-1.82l-0.26-1.02l0,0l-6.94-27.66l-3.46,0.87l0.03,0.14l-5.22,1.31l-1.31-5.22l0,0l-0.87-3.46
	l-26.14,6.56l-1.56-6.24l0,0l-0.87-3.46l-3.46,0.87v0l-22.68,5.69l-2.18-8.68l-51.36,12.88l0,0l-3.46,0.87l0.87,3.46l0,0l1.8,7.16
	l-24.62,6.17l-1.93-7.71l-3.46,0.87l0,0l-24.37,6.11l-4.4-17.54l-3.46,0.87l0,0l-3.07,0.77l0,0l-3.46,0.87l2.42,9.65l-38.03,9.54
	l-1.93-7.71l-0.57,0.14v-0.14h-90.13l-150.41-38.93l0,0l-3.45-0.89l-3.57,13.8l-77.09-19.95l-0.89,3.45l0,0l-23.01,88.88l0,0
	l-0.89,3.45l12.22,3.16l-23.71,91.61l1.53,0.39v0l25.47,6.59l-5.62,21.72h0l-0.89,3.45l3.45,0.89l0,0l62.57,16.2l0.51-1.96l0,0
	l0.22-0.87l0.16-0.62l0,0l4.45-17.21l73.9,19.13l0,0l3.45,0.89l4.84-18.7l98.39,25.47l0-0.02l110.22-27.64l4.57,18.23l0,0l0.87,3.46
	l77.38-19.4l4.09,16.3l-0.02,0l0.87,3.46l77.56-19.45l4.7,18.73l3.41-0.85l0,0l63.55-15.94l-0.87-3.46h0l-5.45-21.72L747.91,338.82z
	 M468.03,260.41H439.9v-31.38h28.12V260.41z M408.21,229.03h28.12v31.38h-28.12V229.03z M468.03,225.46H439.9h-3.26v-29h31.38
	V225.46z M224.13,170.32l-12.23,47.25l-73.64-19.06l12.23-47.25L224.13,170.32z M181.26,243.92l-51.31-13.28l7.42-28.68l51.31,13.28
	L181.26,243.92z M666.9,382.22l-3.83-15.27l0,0l-0.87-3.46l-77.54,19.44l-4.77-19.04l-0.18-0.72l-77.38,19.4l-4.57-18.23l0,0
	l-0.87-3.46l-112.83,28.29l-100.93-26.13l-0.57,2.22l-4.26,16.48l-77.36-20.02l-0.17,0.67l0,0l-5.17,19.99l-59.11-15.3l23.96-92.58
	l-3.45-0.89l-17.45,67.41l-23.55-6.09l22.82-88.16h0l0.89-3.45l-3.45-0.89l0,0l-8.77-2.27l1.56-6.05l54.77,14.18l0.61-2.34
	l7.71-29.79l18.87,4.88l0,0l3.45,0.89l0,0l28.5,7.38l-9.88,38.18l-72.25-18.7l-0.89,3.45l75.7,19.6l0.89-3.45l0,0l9.88-38.18l0,0
	l0.89-3.45l0,0l0.52-1.99l24.81,6.42l0.89-3.45l-28.26-7.32l-1.41,5.44l-28.5-7.38l3.15-12.19l56.76,14.69l0.89-3.45l-56.76-14.69
	l8.18-31.61l0,0l0.89-3.45l0,0l2.68-10.34l150.84,39.04l0,0h51.08v19.85h-34.85l-7.52,29.04l3.45,0.89l6.83-26.37h32.08v5.58h-24.86
	h-1.56h-2v34.95H390.5l1.65-6.39l-3.45-0.89l-1.89,7.28h0l-1,3.57h18.83h3.57h28.12h3.57h28.12h2.14h1.43V201.3l13.91,55.46
	l-7.71,1.93l0.87,3.46l11.17-2.8l-13.86-55.29l40.69-10.2l0,0l0.79-0.2l-2.42-9.65l3.07-0.77l4.12,16.44l0,0l0.27,1.09l27.83-6.98
	l1.93,7.71l28.08-7.04l0,0l3.46-0.87l-0.87-3.46l0,0l-1.8-7.16l47.9-12.01l2.18,8.68l26.14-6.56l1.56,6.24l0,0l0.87,3.46l26.14-6.56
	l1.31,5.22l0,0l0.87,3.46l8.68-2.18l5.42,21.63l-3.81,0.96v0l-3.46,0.87l6.32,25.22l-4.89,1.23l-2.82,0.71l4.99,19.9l0,0l0.5,1.99
	l24.17-6.06l21.74,86.71l-20.87,5.23l-15.73-62.75l0,0l-0.87-3.46l-20.32,5.1l-2.68-10.71l-3.46,0.87l3.29,13.11h0l0.26,1.06
	l20.32-5.1l22.05,87.92L666.9,382.22z"/>
</svg>
